# xmcd
#
# Track frame offsets:
#	150
#	9660
#	21347
#	31508
#	42866
#	55875
#	67066
#	79274
#	91559
#	101935
#
# Disc length: 1497 seconds
#
# Revision: 0
# Processed by: cddbd v1.5.2PL0 Copyright (c) Steve Scherf et al.
# Submitted via: audiograbber 1.83.01
#
DISCID=7605d70a
DTITLE=Assorted - 1960 Country disk 2
DYEAR=1900
DGENRE=
TTITLE0=Merle Haggard - The Legend Of Bonnie And Clyde
TTITLE1=Ray Price - Make The World Go Away
TTITLE2=George Jones - Walk Through  This World With Me
TTITLE3=Porter Wagoner - Misery Loves Company
TTITLE4=Jack Greene - Statue Of A Fool
TTITLE5=Billy Walker - Charlie's Shoes
TTITLE6=Merle Haggard - Workin' Man Blues
TTITLE7=Roy Drusky - Yes, Mr. Peters
TTITLE8=Ferlin Husky - Wings Of A Dove
TTITLE9=Roger Miller - Engine, Engine #9
EXTD=
EXTT0=
EXTT1=
EXTT2=
EXTT3=
EXTT4=
EXTT5=
EXTT6=
EXTT7=
EXTT8=
EXTT9=
PLAYORDER=
